FILE "Rageball (USA).bin" BINARY
  TRACK 01 MODE2/2352
    INDEX 01 00:00:00
  TRACK 02 AUDIO
    INDEX 00 02:19:18
    INDEX 01 02:21:18
  TRACK 03 AUDIO
    INDEX 00 05:11:70
    INDEX 01 05:13:70
  TRACK 04 AUDIO
    INDEX 00 06:07:70
    INDEX 01 06:09:70
  TRACK 05 AUDIO
    INDEX 00 08:11:71
    INDEX 01 08:13:71
REM LEADOUT 13:34:46
